<svg width="64" height="64" viewBox="0 0 64 64" fill="none" xmlns="http://www.w3.org/2000/svg">
<mask id="mask0_0_4729" style="mask-type:alpha" maskUnits="userSpaceOnUse" x="0" y="0" width="64" height="64">
<rect width="64" height="64" fill="white"/>
</mask>
<g mask="url(#mask0_0_4729)">
<path fill-rule="evenodd" clip-rule="evenodd" d="M5.33334 32C5.33334 17.2724 17.2724 5.33334 32 5.33334C46.7276 5.33334 58.6667 17.2724 58.6667 32C58.6505 46.7209 46.7209 58.6505 32 58.6667C17.2724 58.6667 5.33334 46.7276 5.33334 32ZM32 53.3334C43.7779 53.3216 53.3179 43.7673 53.312 31.9894C53.3061 20.2114 43.7566 10.6667 31.9787 10.6667C20.2008 10.6667 10.6512 20.2114 10.6453 31.9894C10.6395 43.7673 20.1794 53.3216 31.9573 53.3334H32ZM16 34.6667L19.76 30.9067L26.6667 37.7867L44.24 20.2133L48 24L26.6667 45.3333L16 34.6667Z" fill="#58C800"/>
</g>
</svg>
