<svg width="26" height="26" viewBox="0 0 26 26" fill="none" xmlns="http://www.w3.org/2000/svg">
<path fill-rule="evenodd" clip-rule="evenodd" d="M20.0283 15.6864H18.8543L17.9436 12.0294H17.9289L17.0332 15.6864H15.837L14.4147 10.3136H15.5959L16.4464 13.9707H16.4614L17.3946 10.3136H18.5006L19.4188 14.0161H19.4335L20.314 10.3136H21.473L20.0283 15.6864ZM14.1138 15.6864H10.0353V10.3136H14.0536V11.307H11.2165V12.4582H13.8203V13.3765H11.2165V14.693H14.1138V15.6864ZM8.99675 15.6864H7.81556L5.58079 12.0896H5.56553V15.6864H4.45952V10.3136H5.63321L7.87548 13.9179H7.89073V10.3136H8.99675V15.6864ZM23.6498 13.362C23.4828 13.1495 23.4828 12.8505 23.6498 12.638L25.2524 10.5994C25.4826 10.3064 25.3844 9.87561 25.0499 9.71166L22.7213 8.57042C22.4789 8.45141 22.3491 8.18205 22.4073 7.91824L22.9668 5.38609C23.047 5.02213 22.7716 4.67677 22.399 4.67399L19.8058 4.65596C19.5356 4.65402 19.3021 4.4676 19.2399 4.20462L18.6454 1.68079C18.56 1.31795 18.1616 1.12626 17.8249 1.28549L15.4808 2.39428C15.2367 2.50996 14.9449 2.44338 14.7751 2.23339L13.1442 0.217208C12.9098 -0.0724026 12.4679 -0.0724026 12.2335 0.217208L10.6026 2.23339C10.4329 2.44338 10.1413 2.50996 9.89692 2.39428L7.55286 1.28549C7.21609 1.12626 6.81801 1.31795 6.73257 1.68079L6.13781 4.20462C6.07568 4.4676 5.8421 4.65402 5.57191 4.65596L2.97873 4.67399C2.60617 4.67677 2.33071 5.02213 2.41116 5.38609L2.97041 7.91824C3.02866 8.18205 2.89884 8.45141 2.65638 8.57042L0.32785 9.71166C-0.00669978 9.87561 -0.104901 10.3064 0.125345 10.5994L1.72791 12.638C1.89491 12.8505 1.89491 13.1495 1.72791 13.362L0.125345 15.4004C-0.104901 15.6936 -0.00669978 16.1241 0.32785 16.2884L2.65638 17.4296C2.89884 17.5486 3.02866 17.818 2.97041 18.0818L2.41116 20.6139C2.33071 20.9779 2.60617 21.3233 2.97873 21.3258L5.57191 21.3441C5.8421 21.3457 6.07568 21.5324 6.13781 21.7954L6.73257 24.3192C6.81801 24.6821 7.21609 24.8738 7.55286 24.7143L9.89692 23.6058C10.1413 23.4901 10.4329 23.5567 10.6026 23.7666L12.2335 25.7828C12.4679 26.0724 12.9098 26.0724 13.1442 25.7828L14.7751 23.7666C14.9449 23.5567 15.2367 23.4901 15.4808 23.6058L17.8249 24.7143C18.1616 24.8738 18.56 24.6821 18.6454 24.3192L19.2399 21.7954C19.3021 21.5324 19.5356 21.3457 19.8058 21.3441L22.399 21.3258C22.7716 21.3233 23.047 20.9779 22.9668 20.6139L22.4073 18.0818C22.3491 17.818 22.4789 17.5486 22.7213 17.4296L25.0499 16.2884C25.3844 16.1241 25.4826 15.6936 25.2524 15.4004L23.6498 13.362Z" fill="#58C800"/>
</svg>
