<svg width="28" height="28" viewBox="0 0 28 28" fill="none" xmlns="http://www.w3.org/2000/svg">
<mask id="mask0_0_75" style="mask-type:alpha" maskUnits="userSpaceOnUse" x="0" y="0" width="28" height="28">
<rect width="28" height="28" fill="white"/>
</mask>
<g mask="url(#mask0_0_75)">
<path d="M9.32812 23.8949C9.32812 22.9284 10.1116 22.1449 11.0781 22.1449C12.0446 22.1449 12.8281 22.9284 12.8281 23.8949C12.8281 24.359 12.6438 24.8041 12.3156 25.1323C11.9874 25.4605 11.5423 25.6449 11.0781 25.6449C10.1116 25.6449 9.32812 24.8614 9.32812 23.8949Z" fill="white"/>
<path d="M19.8281 23.8949C19.8281 22.9284 20.6116 22.1449 21.5781 22.1449C22.5446 22.1449 23.3281 22.9284 23.3281 23.8949C23.3281 24.359 23.1438 24.8041 22.8156 25.1323C22.4874 25.4605 22.0423 25.6449 21.5781 25.6449C20.6116 25.6449 19.8281 24.8614 19.8281 23.8949Z" fill="white"/>
<path fill-rule="evenodd" clip-rule="evenodd" d="M7.92711 3.5H3.5V5.83333L6.07195 5.83254L9.31659 19.8232H23.3299L25.2299 9.82415L9.01545 8.19621L7.92711 3.5ZM11.1691 17.4887L9.57195 10.5972L22.4613 11.891L21.3984 17.4887H11.1691Z" fill="white"/>
</g>
</svg>
