<?xml version="1.0" encoding="utf-8"?><svg viewBox="0 0 29 28" xmlns="http://www.w3.org/2000/svg" xmlns:xlink="http://www.w3.org/1999/xlink"><style>:root>svg{display:none}:root>svg:target{display:block}</style><svg viewBox="0 0 28 28" id="long_right" xmlns="http://www.w3.org/2000/svg"><mask id="aa" maskUnits="userSpaceOnUse" x="0" y="0" width="28" height="28"><path d="M0 0h28v28H0z"/></mask><g mask="url(#aa)"><path d="M18.189 18.188l1.645 1.645L25.666 14l-5.834-5.833-1.644 1.645 3.01 3.021H2.332v2.334h18.865l-3.01 3.021z"/></g></svg><svg viewBox="0 0 26 26" id="new" xmlns="http://www.w3.org/2000/svg"><path fill-rule="evenodd" clip-rule="evenodd" d="M20.028 15.686h-1.174l-.91-3.657h-.015l-.896 3.657h-1.196l-1.422-5.372h1.18l.851 3.657h.015l.934-3.657H18.5l.918 3.702h.014l.881-3.702h1.159l-1.445 5.372zm-5.914 0h-4.079v-5.372h4.019v.993h-2.838v1.151h2.604v.918h-2.604v1.317h2.898v.993zm-5.117 0H7.816L5.58 12.09h-.015v3.596H4.46v-5.372h1.173l2.242 3.604h.016v-3.604h1.106v5.372zm14.653-2.324a.586.586 0 010-.724l1.602-2.039a.586.586 0 00-.202-.887L22.72 8.57a.586.586 0 01-.314-.652l.56-2.532a.586.586 0 00-.568-.712l-2.593-.018a.586.586 0 01-.566-.451l-.595-2.524a.586.586 0 00-.82-.396l-2.344 1.11a.585.585 0 01-.706-.162L13.145.217a.586.586 0 00-.912 0l-1.63 2.016a.585.585 0 01-.706.161L7.553 1.285a.586.586 0 00-.82.396l-.595 2.524a.586.586 0 01-.566.451l-2.593.018a.586.586 0 00-.568.712l.56 2.532a.586.586 0 01-.315.652L.328 9.712a.586.586 0 00-.203.887l1.603 2.039a.586.586 0 010 .724L.125 15.4a.586.586 0 00.203.888l2.328 1.142a.586.586 0 01.314.652l-.559 2.532c-.08.364.195.71.568.712l2.593.018c.27.002.504.188.566.451l.595 2.524a.585.585 0 00.82.395l2.344-1.108a.585.585 0 01.706.16l1.63 2.017c.235.29.677.29.911 0l1.631-2.016a.585.585 0 01.706-.161l2.344 1.108a.586.586 0 00.82-.395l.595-2.524a.585.585 0 01.566-.45l2.593-.02a.586.586 0 00.568-.711l-.56-2.532a.586.586 0 01.314-.652l2.329-1.142a.586.586 0 00.202-.888l-1.602-2.038z"/></svg><svg viewBox="0 0 29 18" id="sale" xmlns="http://www.w3.org/2000/svg"><path fill-rule="evenodd" clip-rule="evenodd" d="M20.444 11.663h4.037v-.984h-2.868V9.376h2.577v-.909h-2.577V7.328h2.808v-.983h-3.977v5.318zm-4.416 0h3.76v-.984h-2.591V6.345h-1.17v5.318zm-2.078-1.184l.402 1.184h1.214l-1.989-5.318h-1.199l-2.01 5.318h1.176l.417-1.184h1.989zm-4.279.823c.186-.152.326-.332.42-.54.095-.21.142-.435.142-.678 0-.298-.063-.543-.19-.734a1.59 1.59 0 00-.45-.458 1.967 1.967 0 00-.525-.25 5.1 5.1 0 00-.413-.108 77.15 77.15 0 01-.808-.208 3.022 3.022 0 01-.485-.164.532.532 0 01-.234-.179.477.477 0 01-.06-.253c0-.114.025-.208.075-.283a.645.645 0 01.19-.186.754.754 0 01.256-.104c.095-.02.19-.03.284-.03.144 0 .276.012.398.037.122.025.23.067.324.127s.17.141.227.246c.057.104.09.235.1.394h1.133c0-.308-.059-.57-.175-.786a1.533 1.533 0 00-.473-.532 2.005 2.005 0 00-.682-.302 3.383 3.383 0 00-.8-.093c-.239 0-.477.033-.715.097a2.003 2.003 0 00-.64.298 1.587 1.587 0 00-.459.503 1.391 1.391 0 00-.175.71c0 .244.046.451.138.623.092.171.212.314.361.428.15.114.318.207.507.28.188.072.382.132.58.182.194.055.385.104.574.149a3.6 3.6 0 01.506.156c.15.06.27.134.361.224a.465.465 0 01.138.35.513.513 0 01-.104.33.72.72 0 01-.26.206c-.105.05-.216.083-.336.1-.119.018-.23.026-.335.026a1.77 1.77 0 01-.447-.055 1.105 1.105 0 01-.376-.172.842.842 0 01-.257-.301.975.975 0 01-.097-.455H5.757a1.75 1.75 0 00.18.85c.123.238.291.434.502.588.211.154.454.267.73.339.275.072.56.108.853.108.362 0 .68-.043.957-.127.275-.084.506-.202.692-.353zM6.251 0h19.84a1.95 1.95 0 011.95 1.95v14.1a1.95 1.95 0 01-1.95 1.95H6.252a1.95 1.95 0 01-1.664-.934l-4.302-7.05a1.95 1.95 0 010-2.031L4.587.935A1.95 1.95 0 016.251 0zm6.016 9.607l.692-1.951h.015l.67 1.951h-1.377z"/></svg><svg viewBox="0 0 23 28" id="top" xmlns="http://www.w3.org/2000/svg"><path fill-rule="evenodd" clip-rule="evenodd" d="M19.13 18.602a1.54 1.54 0 01-.335.575 1.677 1.677 0 01-.599.403 2.33 2.33 0 01-.892.153h-1.29v2.002h-1.228V16.15h2.519c.349 0 .646.051.891.153.245.102.445.236.599.403.153.167.265.357.336.57a2.115 2.115 0 010 1.326zm-5.368 1.502a2.72 2.72 0 01-.54.92 2.49 2.49 0 01-.86.613 2.852 2.852 0 01-1.158.223c-.428 0-.812-.074-1.154-.223a2.467 2.467 0 01-.864-.614 2.707 2.707 0 01-.54-.919 3.367 3.367 0 01-.187-1.138c0-.417.062-.804.188-1.162.124-.356.304-.668.54-.934.234-.266.522-.474.864-.626a2.82 2.82 0 011.153-.227c.433 0 .819.076 1.158.227.338.152.625.36.86.626s.414.578.54.934a3.5 3.5 0 01.187 1.162c0 .407-.062.786-.187 1.138zM8.06 17.183H6.386v4.552H5.158v-4.552H3.484V16.15H8.06v1.033zm9.178-12.061c.537 1.697.574 3.494-.514 5.25a11.282 11.282 0 01-.047-.198C16.344 8.75 14.866 2.419 9.465 0c.242 4.866-2.197 9.475-4.977 12.569a5.825 5.825 0 01-.102-.723c-.091-.881-.23-2.218-1.128-3.872.013 1.457-.679 2.878-1.428 4.418C.743 14.627-.466 17.11.182 20.312c1.26 6.228 7.782 7.691 12.49 7.128 5.13-.615 10.154-4.375 10.047-10.576-.056-3.263-2.318-8.873-5.48-11.742zm-4.86 12.518a1.33 1.33 0 00-.47-.43 1.437 1.437 0 00-.704-.16c-.276 0-.511.054-.704.16a1.33 1.33 0 00-.47.43c-.12.18-.206.385-.261.614a3.049 3.049 0 000 1.397c.055.221.142.42.262.598.12.177.276.32.47.426.192.107.427.16.703.16.276 0 .51-.053.704-.16a1.34 1.34 0 00.47-.426c.12-.177.207-.377.261-.598a3.06 3.06 0 000-1.396 1.89 1.89 0 00-.262-.615zm4.997-.504c.13.02.245.061.344.121.1.06.179.145.239.255.06.109.09.252.09.43 0 .177-.03.32-.09.43a.661.661 0 01-.239.254.95.95 0 01-.344.121c-.13.021-.266.031-.407.031h-.954v-1.673h.954c.141 0 .277.01.407.03z"/></svg></svg>