<svg width="296" height="43" viewBox="0 0 296 43" fill="none" xmlns="http://www.w3.org/2000/svg">
<path d="M0 9.71607V0.702393H35.9377V9.71607H23.4707V41.6737H12.467V9.71607H0Z" fill="black"/>
<path fill-rule="evenodd" clip-rule="evenodd" d="M38.396 21.188C38.396 27.8995 40.1909 33.1087 43.7808 36.8156C47.3707 40.5225 52.4823 42.376 59.1158 42.376C65.7492 42.376 70.8609 40.5225 74.4507 36.8156C78.0406 33.1087 79.8355 27.8995 79.8355 21.188C79.8355 14.4765 78.0406 9.26731 74.4507 5.56039C70.8609 1.85346 65.7492 0 59.1158 0C52.4823 0 47.3707 1.85346 43.7808 5.56039C40.1909 9.26731 38.396 14.4765 38.396 21.188ZM49.3997 21.188C49.3997 17.4421 50.2582 14.4765 51.975 12.2914C53.731 10.0672 56.1112 8.95515 59.1158 8.95515C62.1593 8.95515 64.5396 10.0575 66.2565 12.2621C67.9734 14.4668 68.8318 17.4421 68.8318 21.188C68.8318 24.9339 67.9734 27.9092 66.2565 30.1139C64.5396 32.3185 62.1593 33.4209 59.1158 33.4209C56.1112 33.4209 53.7407 32.3185 52.0043 30.1139C50.2679 27.9092 49.3997 24.9339 49.3997 21.188Z" fill="black"/>
<path fill-rule="evenodd" clip-rule="evenodd" d="M108.574 20.5442C117.861 21.1295 122.504 24.4657 122.504 30.5529C122.504 33.0502 121.714 35.1573 120.134 36.8742C118.553 38.5911 116.563 39.8202 114.164 40.5616C111.764 41.303 109.062 41.6737 106.057 41.6737H86.2739V0.702393H105.472C108.437 0.702393 111.032 1.0048 113.256 1.60961C115.481 2.21443 117.344 3.31675 118.846 4.91658C120.348 6.51641 121.1 8.58448 121.1 11.1208C121.1 14.0863 120.085 16.33 118.056 17.8518C116.027 19.3736 112.866 20.2711 108.574 20.5442ZM97.2776 9.1893V16.7982H104.184C108.125 16.7982 110.096 15.5301 110.096 12.9938C110.096 10.4575 108.184 9.1893 104.36 9.1893H97.2776ZM111.501 29.0311C111.501 31.8015 109.354 33.1868 105.062 33.1868H97.2776V24.8754H105.53C109.51 24.8754 111.501 26.2607 111.501 29.0311Z" fill="black"/>
<path fill-rule="evenodd" clip-rule="evenodd" d="M152.706 33.3038L155.106 41.6737H166.285L153.876 0.702393H136.903L124.494 41.6737H135.322L137.722 33.3038H152.706ZM145.214 6.84808L150.365 24.9925H140.063L145.214 6.84808Z" fill="black"/>
<path d="M167.924 21.188C167.924 14.6716 169.689 9.51119 173.221 5.70671C176.752 1.90224 181.62 0 187.824 0C193.092 0 197.326 1.28767 200.525 3.86301C203.725 6.43834 205.676 9.96968 206.378 14.457L195.843 15.335C195.414 13.3839 194.487 11.8329 193.063 10.6818C191.638 9.5307 189.892 8.95515 187.824 8.95515C185.795 8.95515 184.088 9.55021 182.703 10.7403C181.318 11.9304 180.342 13.4132 179.776 15.1886C179.21 16.9641 178.928 18.9638 178.928 21.188C178.928 24.9339 179.786 27.9092 181.503 30.1139C183.22 32.3185 185.522 33.4209 188.409 33.4209C190.595 33.4209 192.38 32.777 193.765 31.4893C195.15 30.2017 196.057 28.5433 196.487 26.5143L207.081 27.1581C206.417 32.0747 204.505 35.8401 201.345 38.4545C198.184 41.0688 193.872 42.376 188.409 42.376C181.971 42.376 176.947 40.4835 173.338 36.6986C169.729 32.9136 167.924 27.7434 167.924 21.188Z" fill="black"/>
<path d="M210.943 21.188C210.943 14.6716 212.709 9.51119 216.24 5.70671C219.772 1.90224 224.639 0 230.844 0C236.111 0 240.345 1.28767 243.545 3.86301C246.744 6.43834 248.695 9.96968 249.398 14.457L238.862 15.335C238.433 13.3839 237.506 11.8329 236.082 10.6818C234.658 9.5307 232.912 8.95515 230.844 8.95515C228.815 8.95515 227.108 9.55021 225.722 10.7403C224.337 11.9304 223.362 13.4132 222.796 15.1886C222.23 16.9641 221.947 18.9638 221.947 21.188C221.947 24.9339 222.806 27.9092 224.522 30.1139C226.239 32.3185 228.541 33.4209 231.429 33.4209C233.614 33.4209 235.399 32.777 236.785 31.4893C238.17 30.2017 239.077 28.5433 239.506 26.5143L250.1 27.1581C249.437 32.0747 247.525 35.8401 244.364 38.4545C241.204 41.0688 236.892 42.376 231.429 42.376C224.991 42.376 219.967 40.4835 216.357 36.6986C212.748 32.9136 210.943 27.7434 210.943 21.188Z" fill="black"/>
<path fill-rule="evenodd" clip-rule="evenodd" d="M253.963 21.188C253.963 27.8995 255.758 33.1087 259.348 36.8156C262.938 40.5225 268.05 42.376 274.683 42.376C281.317 42.376 286.428 40.5225 290.018 36.8156C293.608 33.1087 295.403 27.8995 295.403 21.188C295.403 14.4765 293.608 9.26731 290.018 5.56039C286.428 1.85346 281.317 0 274.683 0C268.05 0 262.938 1.85346 259.348 5.56039C255.758 9.26731 253.963 14.4765 253.963 21.188ZM264.967 21.188C264.967 17.4421 265.826 14.4765 267.542 12.2914C269.298 10.0672 271.679 8.95515 274.683 8.95515C277.727 8.95515 280.107 10.0575 281.824 12.2621C283.541 14.4668 284.399 17.4421 284.399 21.188C284.399 24.9339 283.541 27.9092 281.824 30.1139C280.107 32.3185 277.727 33.4209 274.683 33.4209C271.679 33.4209 269.308 32.3185 267.572 30.1139C265.835 27.9092 264.967 24.9339 264.967 21.188Z" fill="black"/>
</svg>
