<svg width="28" height="28" viewBox="0 0 28 28" fill="none" xmlns="http://www.w3.org/2000/svg">
<mask id="mask0_0_8" style="mask-type:alpha" maskUnits="userSpaceOnUse" x="0" y="0" width="28" height="28">
<rect width="28" height="28" fill="white"/>
</mask>
<g mask="url(#mask0_0_8)">
<path fill-rule="evenodd" clip-rule="evenodd" d="M13.9998 3.5C17.2215 3.5 19.8332 6.11167 19.8332 9.33333C19.8332 12.555 17.2215 15.1667 13.9998 15.1667C10.7782 15.1667 8.1665 12.555 8.1665 9.33333C8.1665 6.11167 10.7782 3.5 13.9998 3.5ZM17.4998 9.33333C17.4998 7.40034 15.9328 5.83333 13.9998 5.83333C12.0668 5.83333 10.4998 7.40034 10.4998 9.33333C10.4998 11.2663 12.0668 12.8333 13.9998 12.8333C15.9328 12.8333 17.4998 11.2663 17.4998 9.33333ZM4.6665 25.6667H6.99984C6.99984 23.8102 7.73734 22.0297 9.05009 20.7169C10.3628 19.4042 12.1433 18.6667 13.9998 18.6667C15.8564 18.6667 17.6368 19.4042 18.9496 20.7169C20.2623 22.0297 20.9998 23.8102 20.9998 25.6667H23.3332C23.3332 23.1913 22.3498 20.8173 20.5995 19.067C18.8492 17.3167 16.4752 16.3333 13.9998 16.3333C11.5245 16.3333 9.15051 17.3167 7.40017 19.067C5.64983 20.8173 4.6665 23.1913 4.6665 25.6667Z" fill="black"/>
</g>
</svg>
