<svg width="29" height="18" viewBox="0 0 29 18" fill="none" xmlns="http://www.w3.org/2000/svg">
<path fill-rule="evenodd" clip-rule="evenodd" d="M20.444 11.6626H24.4806V10.6794H21.6134V9.37629H24.1901V8.46749H21.6134V7.32806H24.421V6.34485H20.444V11.6626ZM16.0277 11.6626H19.7886V10.6794H17.197V6.34485H16.0277V11.6626ZM13.9498 10.4787L14.3518 11.6626H15.5659L13.5772 6.34485H12.3782L10.3676 11.6626H11.5441L11.9612 10.4787H13.9498ZM9.6713 11.3015C9.85718 11.15 9.99748 10.9701 10.0919 10.7615C10.1861 10.5528 10.2333 10.3271 10.2333 10.0836C10.2333 9.78566 10.1702 9.54102 10.0436 9.34993C9.91704 9.15911 9.76658 9.00618 9.59278 8.89196C9.41926 8.77774 9.24409 8.69455 9.06782 8.64266C8.89182 8.59049 8.75399 8.55452 8.6546 8.53448C8.32183 8.45019 8.05249 8.38073 7.84657 8.32609C7.64037 8.27118 7.47893 8.21681 7.36224 8.16217C7.24582 8.10754 7.1673 8.04796 7.12776 7.98343C7.08795 7.91891 7.06818 7.83462 7.06818 7.73029C7.06818 7.61607 7.09317 7.52162 7.14286 7.44694C7.19228 7.37281 7.25571 7.31048 7.33259 7.26106C7.40946 7.21137 7.49513 7.1765 7.5893 7.15673C7.68375 7.13696 7.7782 7.1268 7.87265 7.1268C8.01652 7.1268 8.14941 7.13916 8.27104 7.16414C8.39267 7.18913 8.50057 7.23114 8.59502 7.29072C8.6892 7.3503 8.76497 7.43239 8.82236 7.53672C8.87919 7.64106 8.91269 7.7723 8.92285 7.93127H10.0549C10.0549 7.62348 9.99638 7.36155 9.8797 7.14547C9.76301 6.92967 9.60513 6.75202 9.4069 6.61282C9.20812 6.47417 8.98106 6.3734 8.72516 6.31135C8.46955 6.2493 8.20267 6.21828 7.92454 6.21828C7.6865 6.21828 7.44818 6.25067 7.20986 6.31492C6.97154 6.37972 6.75793 6.47884 6.5693 6.61282C6.38041 6.74708 6.22802 6.91457 6.11133 7.11554C5.99437 7.3168 5.93616 7.55402 5.93616 7.82693C5.93616 8.07047 5.98202 8.27749 6.07399 8.44882C6.1657 8.62014 6.28623 8.76292 6.43504 8.87713C6.58413 8.99135 6.75299 9.08443 6.94161 9.15636C7.13023 9.22857 7.32407 9.28925 7.52231 9.33895C7.71615 9.39358 7.90724 9.44328 8.09587 9.48776C8.28477 9.53251 8.45362 9.58468 8.60243 9.64426C8.75152 9.70384 8.8715 9.77824 8.96348 9.86775C9.05546 9.95699 9.10131 10.0737 9.10131 10.2175C9.10131 10.3518 9.06644 10.4625 8.99698 10.5489C8.92779 10.6363 8.84075 10.7043 8.73642 10.7538C8.63209 10.8037 8.52061 10.8372 8.40145 10.8545C8.2823 10.8718 8.17055 10.8803 8.06622 10.8803C7.91219 10.8803 7.7631 10.8619 7.6195 10.8246C7.47508 10.7873 7.34988 10.7304 7.24335 10.6533C7.13627 10.5764 7.05089 10.4759 6.98636 10.3518C6.92184 10.2277 6.88944 10.0764 6.88944 9.89741H5.75742C5.75248 10.2252 5.81206 10.5083 5.93616 10.7464C6.06027 10.9847 6.22802 11.181 6.43889 11.335C6.65002 11.4888 6.89301 11.6016 7.16867 11.6738C7.44433 11.7458 7.7285 11.7817 8.02174 11.7817C8.38388 11.7817 8.70292 11.7394 8.97858 11.6551C9.25424 11.5709 9.48515 11.4528 9.6713 11.3015ZM6.25136 0H26.0915C27.1683 0 28.0411 0.872832 28.0411 1.94966V16.0503C28.0411 17.1269 27.1683 18 26.0915 18H6.25136C5.57155 18 4.94115 17.6461 4.58697 17.0657L0.285407 10.0155C-0.0951357 9.39194 -0.0951357 8.60806 0.285407 7.98453L4.58697 0.934059C4.94115 0.35391 5.57155 0 6.25136 0ZM12.2668 9.607L12.9592 7.65569H12.974L13.6442 9.607H12.2668Z" fill="#FF1515"/>
</svg>
