<svg width="48" height="27" viewBox="0 0 48 27" fill="none" xmlns="http://www.w3.org/2000/svg">
<path d="M28.425 10.296H31.9201V17.424H30.001V11.5587L28.8002 17.424H26.0877L24.8869 11.5587V17.424H22.9678V10.296H26.4951L27.46 16.0901L28.425 10.296Z" fill="black"/>
<path d="M33.4639 17.424V10.296H35.4795V17.424H33.4639Z" fill="black"/>
<path d="M42.0411 10.296H43.9602V17.424H40.5829L38.9426 11.7013V17.424H37.0234V10.296H40.4007L42.0411 16.0188V10.296Z" fill="black"/>
<path d="M45.5044 17.424V10.296H47.52V17.424H45.5044Z" fill="black"/>
<path fill-rule="evenodd" clip-rule="evenodd" d="M10.3037 0L0 5.85574V25.2372L2.88008 26.9279L3.00174 7.25766L12.8594 1.56698L10.3037 0Z" fill="black"/>
<path fill-rule="evenodd" clip-rule="evenodd" d="M3.3667 7.54652V26.9281L9.65444 23.7527L6.42944 21.7322V9.69072L13.6704 5.23726L16.6318 6.88677V3.79396L13.3459 1.81445L3.3667 7.54652Z" fill="black"/>
<path fill-rule="evenodd" clip-rule="evenodd" d="M11.0945 7.27857L14.0069 8.97043V15.445L11.9266 19.0889L9.99941 20.2276L6.77441 18.3094V21.5259L10.0521 23.5403L14.1031 21.3014L16.632 16.8439V7.37618L13.6549 5.68433L11.0945 7.27857Z" fill="black"/>
<path fill-rule="evenodd" clip-rule="evenodd" d="M6.93359 17.9502L9.27006 17.0393L10.9023 14.1111V7.604L13.5907 9.16567V15.3474L11.703 18.6986L9.99919 19.7722L6.93359 17.9502Z" fill="black"/>
</svg>
