<svg width="23" height="23" viewBox="0 0 23 23" fill="none" xmlns="http://www.w3.org/2000/svg">
<path fill-rule="evenodd" clip-rule="evenodd" d="M4.92711 0.5H0.5V2.83333L3.07195 2.83254L6.31659 16.8232H20.3299L22.2299 6.82415L6.01545 5.19621L4.92711 0.5ZM8.16912 14.4887L6.57195 7.59721L19.4613 8.89104L18.3984 14.4887H8.16912ZM16.8281 20.8949C16.8281 19.9284 17.6116 19.1449 18.5781 19.1449C19.5446 19.1449 20.3281 19.9284 20.3281 20.8949C20.3281 21.359 20.1437 21.8041 19.8156 22.1323C19.4874 22.4605 19.0422 22.6449 18.5781 22.6449C17.6116 22.6449 16.8281 21.8614 16.8281 20.8949ZM8.07812 19.1449C7.11162 19.1449 6.32812 19.9284 6.32812 20.8949C6.32812 21.8614 7.11162 22.6449 8.07812 22.6449C8.54224 22.6449 8.98736 22.4605 9.31555 22.1323C9.64374 21.8041 9.82812 21.359 9.82812 20.8949C9.82812 19.9284 9.04461 19.1449 8.07812 19.1449Z" fill="#FF9400"/>
</svg>
