<svg width="20" height="20" viewBox="0 0 20 20" fill="none" xmlns="http://www.w3.org/2000/svg">
<path fill-rule="evenodd" clip-rule="evenodd" d="M10 0C4.47715 0 0 4.47715 0 10C0 15.5228 4.47715 20 10 20C15.5228 20 20 15.5228 20 10C20 4.47715 15.5228 0 10 0ZM10 2.22222C14.2955 2.22222 17.7778 5.70445 17.7778 10C17.7778 14.2955 14.2955 17.7778 10 17.7778C5.70445 17.7778 2.22222 14.2955 2.22222 10C2.22222 5.70445 5.70445 2.22222 10 2.22222ZM11.4814 5.55556C11.4814 6.37376 10.8181 7.03704 9.99991 7.03704C9.18171 7.03704 8.51843 6.37376 8.51843 5.55556C8.51843 4.73736 9.18171 4.07407 9.99991 4.07407C10.8181 4.07407 11.4814 4.73736 11.4814 5.55556ZM10 8.14815C10.6042 8.14815 11.0958 8.63042 11.1108 9.23102L11.1111 9.25926V13.3966L11.1173 13.3988C11.5372 13.55 11.8398 13.947 11.8515 14.4162L11.8519 14.4444C11.8519 15.0487 11.3696 15.5402 10.769 15.5552L10.7407 15.5556H10C9.39579 15.5556 8.90422 15.0733 8.88924 14.4727L8.88889 14.4444V10.307L8.88273 10.3049C8.4628 10.1537 8.1602 9.75672 8.1485 9.2875L8.14815 9.25926C8.14815 8.65505 8.63042 8.16348 9.23102 8.1485L9.25926 8.14815H10Z" fill="#7F7F7F"/>
</svg>
