<svg width="23" height="28" viewBox="0 0 23 28" fill="none" xmlns="http://www.w3.org/2000/svg">
<path fill-rule="evenodd" clip-rule="evenodd" d="M19.1308 18.6023C19.0605 18.8189 18.9483 19.0106 18.7946 19.1773C18.6407 19.3442 18.4411 19.4783 18.1963 19.5804C17.951 19.6819 17.654 19.7326 17.3045 19.7326H16.0139V21.7348H14.7862V16.1503H17.3045C17.654 16.1503 17.951 16.2013 18.1963 16.3028C18.4411 16.4046 18.6407 16.539 18.7946 16.7059C18.9483 16.8726 19.0605 17.0629 19.1308 17.2766C19.2012 17.4908 19.2364 17.7122 19.2364 17.9415C19.2364 18.1658 19.2012 18.3861 19.1308 18.6023ZM13.7617 20.1043C13.6363 20.4563 13.4567 20.7625 13.222 21.0232C12.9873 21.2839 12.7004 21.4886 12.3616 21.6371C12.0228 21.7859 11.637 21.86 11.2042 21.86C10.7763 21.86 10.3917 21.7859 10.0505 21.6371C9.70887 21.4886 9.42082 21.2839 9.18641 21.0232C8.95141 20.7625 8.77149 20.4563 8.64664 20.1043C8.52121 19.7522 8.45864 19.3728 8.45864 18.9662C8.45864 18.549 8.52121 18.162 8.64664 17.8045C8.77149 17.4475 8.95141 17.1358 9.18641 16.87C9.42082 16.6039 9.70887 16.3957 10.0505 16.2443C10.3917 16.0932 10.7763 16.0174 11.2042 16.0174C11.637 16.0174 12.0228 16.0932 12.3616 16.2443C12.7004 16.3957 12.9873 16.6039 13.222 16.87C13.4567 17.1358 13.6363 17.4475 13.7617 17.8045C13.8869 18.162 13.9494 18.549 13.9494 18.9662C13.9494 19.3728 13.8869 19.7522 13.7617 20.1043ZM8.05987 17.1828H6.38637V21.7348H5.15834V17.1828H3.48426V16.1503H8.05987V17.1828ZM17.2385 5.12172C17.7748 6.81916 17.8123 8.6155 16.7241 10.3729C16.7119 10.3249 16.6962 10.2579 16.6766 10.1736L16.6765 10.1735C16.3441 8.75015 14.8656 2.41888 9.46523 0C9.70685 4.86626 7.26781 9.47474 4.48825 12.5689C4.44216 12.3816 4.41688 12.1391 4.38638 11.8463C4.29454 10.9649 4.15525 9.62808 3.25791 7.97366C3.27109 9.43063 2.5793 10.8522 1.82992 12.3921C0.742565 14.6266 -0.466027 17.1102 0.181939 20.3125C1.44226 26.5397 7.96443 28.0035 12.6715 27.4398C17.8013 26.8254 22.8262 23.0655 22.7189 16.8639C22.6627 13.6008 20.4015 7.99067 17.2385 5.12172ZM12.3772 17.6404C12.2572 17.4605 12.1009 17.3172 11.908 17.2102C11.7149 17.1036 11.4804 17.0499 11.2042 17.0499C10.9277 17.0499 10.693 17.1036 10.5001 17.2102C10.3072 17.3172 10.1506 17.4605 10.0307 17.6404C9.91074 17.8204 9.82366 18.0251 9.76887 18.2543C9.71409 18.4838 9.6867 18.7211 9.6867 18.9662C9.6867 19.2006 9.71409 19.429 9.76887 19.6507C9.82366 19.8722 9.91074 20.0717 10.0307 20.2487C10.1506 20.4261 10.3072 20.5682 10.5001 20.6749C10.693 20.7822 10.9277 20.8355 11.2042 20.8355C11.4804 20.8355 11.7149 20.7822 11.908 20.6749C12.1009 20.5682 12.2572 20.4261 12.3772 20.2487C12.4971 20.0717 12.5845 19.8722 12.6393 19.6507C12.694 19.429 12.7214 19.2006 12.7214 18.9662C12.7214 18.7211 12.694 18.4838 12.6393 18.2543C12.5845 18.0251 12.4971 17.8204 12.3772 17.6404ZM17.375 17.1358C17.5054 17.1569 17.6201 17.1972 17.7193 17.2572C17.8182 17.3172 17.8978 17.402 17.9578 17.5115C18.0174 17.6208 18.0477 17.7644 18.0477 17.9414C18.0477 18.1188 18.0174 18.2621 17.9578 18.3716C17.8978 18.4812 17.8182 18.566 17.7193 18.6259C17.6201 18.6859 17.5054 18.7266 17.375 18.747C17.2447 18.7681 17.1092 18.7782 16.9685 18.7782H16.0141V17.1047H16.9685C17.1092 17.1047 17.2447 17.1153 17.375 17.1358Z" fill="#FF6C02"/>
</svg>
